<mxfile host="app.diagrams.net" modified="2023-11-13T05:59:04.170Z" agent="Mozilla/5.0 (Macintosh; Intel Mac OS X 10_15_7) AppleWebKit/537.36 (KHTML, like Gecko) Chrome/119.0.0.0 Safari/537.36" etag="Nd-EDeAhllTWOeCdc510" version="22.1.0" type="github">
  <diagram name="Page-1" id="JXgnwg63voDV1en61_65">
    <mxGraphModel dx="869" dy="479" grid="1" gridSize="10" guides="1" tooltips="1" connect="1" arrows="1" fold="1" page="1" pageScale="1" pageWidth="850" pageHeight="1100" math="0" shadow="0">
      <root>
        <mxCell id="0" />
        <mxCell id="1" parent="0" />
        <mxCell id="wS83XRQ52d2ZgOB3fWDj-1" value="" style="edgeStyle=orthogonalEdgeStyle;rounded=0;orthogonalLoop=1;jettySize=auto;html=1;" edge="1" parent="1" source="wS83XRQ52d2ZgOB3fWDj-2" target="wS83XRQ52d2ZgOB3fWDj-6">
          <mxGeometry relative="1" as="geometry" />
        </mxCell>
        <mxCell id="wS83XRQ52d2ZgOB3fWDj-2" value="done &amp;lt;- 0&lt;br&gt;valid &amp;lt;- 0&lt;br&gt;displayout &amp;lt;- 0&lt;br&gt;clockcount &amp;lt;- 0&lt;br&gt;RAM &amp;lt;- 0" style="whiteSpace=wrap;html=1;aspect=fixed;align=left;" vertex="1" parent="1">
          <mxGeometry x="80" y="90" width="100" height="100" as="geometry" />
        </mxCell>
        <mxCell id="wS83XRQ52d2ZgOB3fWDj-3" style="edgeStyle=orthogonalEdgeStyle;rounded=0;orthogonalLoop=1;jettySize=auto;html=1;" edge="1" parent="1" source="wS83XRQ52d2ZgOB3fWDj-6">
          <mxGeometry relative="1" as="geometry">
            <mxPoint x="40" y="150" as="targetPoint" />
          </mxGeometry>
        </mxCell>
        <mxCell id="wS83XRQ52d2ZgOB3fWDj-4" value="1" style="edgeLabel;html=1;align=center;verticalAlign=middle;resizable=0;points=[];" vertex="1" connectable="0" parent="wS83XRQ52d2ZgOB3fWDj-3">
          <mxGeometry x="-0.6623" y="1" relative="1" as="geometry">
            <mxPoint as="offset" />
          </mxGeometry>
        </mxCell>
        <mxCell id="wS83XRQ52d2ZgOB3fWDj-6" value="reset" style="shape=hexagon;perimeter=hexagonPerimeter2;whiteSpace=wrap;html=1;fixedSize=1;" vertex="1" parent="1">
          <mxGeometry x="92.5" y="220" width="75" height="40" as="geometry" />
        </mxCell>
        <mxCell id="wS83XRQ52d2ZgOB3fWDj-7" value="" style="endArrow=classic;html=1;rounded=0;" edge="1" parent="1">
          <mxGeometry width="50" height="50" relative="1" as="geometry">
            <mxPoint x="40" y="150" as="sourcePoint" />
            <mxPoint x="80" y="150" as="targetPoint" />
          </mxGeometry>
        </mxCell>
        <mxCell id="wS83XRQ52d2ZgOB3fWDj-9" value="" style="edgeStyle=orthogonalEdgeStyle;rounded=0;orthogonalLoop=1;jettySize=auto;html=1;" edge="1" parent="1" source="wS83XRQ52d2ZgOB3fWDj-10" target="wS83XRQ52d2ZgOB3fWDj-12">
          <mxGeometry relative="1" as="geometry">
            <Array as="points">
              <mxPoint x="128" y="400" />
              <mxPoint x="128" y="400" />
            </Array>
          </mxGeometry>
        </mxCell>
        <mxCell id="wS83XRQ52d2ZgOB3fWDj-10" value="N &amp;lt;- N&lt;br&gt;reset &amp;lt;- reset&lt;br&gt;start &amp;lt;- start&lt;br&gt;" style="whiteSpace=wrap;html=1;aspect=fixed;align=left;" vertex="1" parent="1">
          <mxGeometry x="85" y="300" width="90" height="90" as="geometry" />
        </mxCell>
        <mxCell id="wS83XRQ52d2ZgOB3fWDj-11" value="" style="edgeStyle=orthogonalEdgeStyle;rounded=0;orthogonalLoop=1;jettySize=auto;html=1;" edge="1" parent="1" source="wS83XRQ52d2ZgOB3fWDj-12" target="wS83XRQ52d2ZgOB3fWDj-15">
          <mxGeometry relative="1" as="geometry">
            <Array as="points">
              <mxPoint x="130" y="510" />
              <mxPoint x="130" y="510" />
            </Array>
          </mxGeometry>
        </mxCell>
        <mxCell id="wS83XRQ52d2ZgOB3fWDj-12" value="" style="whiteSpace=wrap;html=1;align=left;" vertex="1" parent="1">
          <mxGeometry x="94.09" y="430" width="71.82" height="50" as="geometry" />
        </mxCell>
        <mxCell id="wS83XRQ52d2ZgOB3fWDj-15" value="start" style="shape=hexagon;perimeter=hexagonPerimeter2;whiteSpace=wrap;html=1;fixedSize=1;" vertex="1" parent="1">
          <mxGeometry x="92.56" y="520" width="77.44" height="40" as="geometry" />
        </mxCell>
        <mxCell id="wS83XRQ52d2ZgOB3fWDj-17" value="0" style="edgeStyle=orthogonalEdgeStyle;rounded=0;orthogonalLoop=1;jettySize=auto;html=1;" edge="1" parent="1">
          <mxGeometry relative="1" as="geometry">
            <mxPoint x="129.68" y="260" as="sourcePoint" />
            <mxPoint x="129.68" y="300" as="targetPoint" />
          </mxGeometry>
        </mxCell>
        <mxCell id="wS83XRQ52d2ZgOB3fWDj-18" value="" style="endArrow=classic;html=1;rounded=0;entryX=1;entryY=0.5;entryDx=0;entryDy=0;" edge="1" parent="1" target="wS83XRQ52d2ZgOB3fWDj-6">
          <mxGeometry width="50" height="50" relative="1" as="geometry">
            <mxPoint x="170" y="540" as="sourcePoint" />
            <mxPoint x="170" y="250" as="targetPoint" />
            <Array as="points">
              <mxPoint x="200" y="540" />
              <mxPoint x="200" y="240" />
            </Array>
          </mxGeometry>
        </mxCell>
        <mxCell id="wS83XRQ52d2ZgOB3fWDj-19" value="0" style="edgeLabel;html=1;align=center;verticalAlign=middle;resizable=0;points=[];" vertex="1" connectable="0" parent="wS83XRQ52d2ZgOB3fWDj-18">
          <mxGeometry x="-0.937" relative="1" as="geometry">
            <mxPoint as="offset" />
          </mxGeometry>
        </mxCell>
      </root>
    </mxGraphModel>
  </diagram>
</mxfile>
